<?xml version="1.0" standalone="no"?>
<svg xmlns:xlink="http://www.w3.org/1999/xlink" id="wave" style="transform:rotate(180deg); transition: 0.3s" viewBox="0 0 1440 180" version="1.1" xmlns="http://www.w3.org/2000/svg"><defs><linearGradient id="sw-gradient-0" x1="0" x2="0" y1="1" y2="0"><stop stop-color="rgba(241.709, 127.542, 127.542, 1)" offset="0%"/><stop stop-color="rgba(248, 248, 248, 1)" offset="100%"/></linearGradient></defs><path style="transform:translate(0, 0px); opacity:1" fill="url(#sw-gradient-0)" d="M0,144L40,147C80,150,160,156,240,153C320,150,400,138,480,138C560,138,640,150,720,135C800,120,880,78,960,66C1040,54,1120,72,1200,84C1280,96,1360,102,1440,90C1520,78,1600,48,1680,51C1760,54,1840,90,1920,87C2000,84,2080,42,2160,27C2240,12,2320,24,2400,48C2480,72,2560,108,2640,126C2720,144,2800,144,2880,126C2960,108,3040,72,3120,66C3200,60,3280,84,3360,87C3440,90,3520,72,3600,75C3680,78,3760,102,3840,96C3920,90,4000,54,4080,45C4160,36,4240,54,4320,69C4400,84,4480,96,4560,96C4640,96,4720,84,4800,84C4880,84,4960,96,5040,99C5120,102,5200,96,5280,102C5360,108,5440,126,5520,117C5600,108,5680,72,5720,54L5760,36L5760,180L5720,180C5680,180,5600,180,5520,180C5440,180,5360,180,5280,180C5200,180,5120,180,5040,180C4960,180,4880,180,4800,180C4720,180,4640,180,4560,180C4480,180,4400,180,4320,180C4240,180,4160,180,4080,180C4000,180,3920,180,3840,180C3760,180,3680,180,3600,180C3520,180,3440,180,3360,180C3280,180,3200,180,3120,180C3040,180,2960,180,2880,180C2800,180,2720,180,2640,180C2560,180,2480,180,2400,180C2320,180,2240,180,2160,180C2080,180,2000,180,1920,180C1840,180,1760,180,1680,180C1600,180,1520,180,1440,180C1360,180,1280,180,1200,180C1120,180,1040,180,960,180C880,180,800,180,720,180C640,180,560,180,480,180C400,180,320,180,240,180C160,180,80,180,40,180L0,180Z"/></svg>